<?xml version="1.0" encoding="utf-8"?>
<!-- Generator: Adobe Illustrator 28.0.0, SVG Export Plug-In . SVG Version: 6.00 Build 0)  -->
<svg version="1.1"
	 id="svg3017" xmlns:svg="http://www.w3.org/2000/svg" xmlns:sodipodi="http://sodipodi.sourceforge.net/DTD/sodipodi-0.dtd" xmlns:inkscape="http://www.inkscape.org/namespaces/inkscape" xmlns:rdf="http://www.w3.org/1999/02/22-rdf-syntax-ns#" xmlns:cc="http://creativecommons.org/ns#" xmlns:dc="http://purl.org/dc/elements/1.1/" sodipodi:docname="reebok logo22.svg"
	 xmlns="http://www.w3.org/2000/svg" xmlns:xlink="http://www.w3.org/1999/xlink" x="0px" y="0px" viewBox="0 0 512 512"
	 style="enable-background:new 0 0 512 512;" xml:space="preserve">
<style type="text/css">
	.st0{fill:#E41D1B;}
</style>
<sodipodi:namedview  bordercolor="#666666" borderopacity="1" gridtolerance="10" guidetolerance="10" id="namedview3045" inkscape:current-layer="svg3017" inkscape:cx="200.73987" inkscape:cy="40.385126" inkscape:pageopacity="0" inkscape:pageshadow="2" inkscape:window-height="657" inkscape:window-maximized="1" inkscape:window-width="1280" inkscape:window-x="0" inkscape:window-y="0" inkscape:zoom="2.4591681" objecttolerance="10" pagecolor="#ffffff" showgrid="false">
	</sodipodi:namedview>
<g id="g3069" transform="matrix(0.34561373,0,0,0.34561373,-12.564342,-70.509325)">
	<g id="svg_1" transform="matrix(4.16667,0,0,4.16667,-181.171,-182.779)">
		<path id="svg_2" inkscape:connector-curvature="0" class="st0" d="M273.42,263.32c40.79-16.25,66.2-25.58,133.61-42
			c-36.64,2.42-117.36,7.78-173.02,18.84C233.84,239.98,272.56,262.8,273.42,263.32z"/>
	</g>
	<g id="svg_3" transform="matrix(4.16667,0,0,4.16667,-181.171,-182.779)">
		<path id="svg_4" inkscape:connector-curvature="0" class="st0" d="M146.55,317.42h53.41c10.37-15.9,21.26-23.85,33.19-32.49
			c-9.16-3.63-18.49-7.09-28-10.37C171.1,289.42,152.08,309.47,146.55,317.42L146.55,317.42z"/>
	</g>
	<g id="svg_5" transform="matrix(4.16667,0,0,4.16667,-181.171,-182.779)">
		<path id="svg_6" inkscape:connector-curvature="0" class="st0" d="M157.1,259.17c-47.53,16.94-73.98,35.61-91.78,58.25h58.77
			c5.7-8.12,27.66-31.11,68.79-47.01C181.29,266.43,161.76,260.38,157.1,259.17L157.1,259.17z"/>
	</g>
	<g id="svg_7" transform="matrix(4.16667,0,0,4.16667,-181.171,-182.779)">
		<path id="svg_8" inkscape:connector-curvature="0" class="st0" d="M181.64,223.22H51.49c131.19,23.85,194.45,54.45,296.43,97.48
			C338.93,314.31,198.58,231.69,181.64,223.22z"/>
	</g>
</g>
</svg>
