<?xml version="1.0" encoding="utf-8"?>
<!-- Generator: Adobe Illustrator 28.2.0, SVG Export Plug-In . SVG Version: 6.00 Build 0)  -->
<svg version="1.1" id="Layer_1" xmlns="http://www.w3.org/2000/svg" xmlns:xlink="http://www.w3.org/1999/xlink" x="0px" y="0px"
	 viewBox="0 0 512 512" style="enable-background:new 0 0 512 512;" xml:space="preserve">
<style type="text/css">
	.st0{clip-path:url(#SVGID_00000016045684086511745160000009072304893318769805_);}
	.st1{fill:#E21836;}
	.st2{fill-rule:evenodd;clip-rule:evenodd;fill:#E21836;}
</style>
<g id="layer1" transform="translate(-291.84746,-593.15508)">
	<g id="g12167" transform="matrix(3.0314991,0,0,-3.0314991,125.02367,2886.5171)">
		<g>
			<defs>
				<rect id="SVGID_1_" x="-116.52" y="531.78" width="512" height="280.57"/>
			</defs>
			<clipPath id="SVGID_00000152246377227046394940000015585598602553199789_">
				<use xlink:href="#SVGID_1_"  style="overflow:visible;"/>
			</clipPath>
			<g id="g12169" style="clip-path:url(#SVGID_00000152246377227046394940000015585598602553199789_);">
				<g id="g12175" transform="translate(55.36,702.6114)">
					<path id="path12177" class="st1" d="M-0.33-76.31h3.78v7.51c0,1.34,0,2.99,0.69,3.96c0.68,1.05,1.91,1.39,2.59,1.39
						c3.19,0,3.19-3.76,3.19-5.06v-7.8h3.78v8.54c0,1.23,0,3.87-1.45,5.61c-1.31,1.6-3.39,2.2-4.75,2.2c-2.39,0-3.7-1.31-4.33-1.91
						v1.37l-3.5,0V-76.31"/>
				</g>
				<g id="g12179" transform="translate(73.5474,706.2231)">
					<path id="path12181" class="st2" d="M12.73-73.72c0.11,0.51,0.23,1.17,0.23,1.91c0,3.98-3.16,8.32-8.17,8.32
						c-4.87,0-8.31-4.1-8.31-8.57c0-4.61,3.64-8.37,8.34-8.37c3.7,0,6.72,2.64,7.63,5.49H8.46c-0.71-1.31-1.96-2.02-3.64-2.02
						c-2.7,0-4.19,2.22-4.36,3.25H12.73z M0.34-70.67c0.71,2.93,3.08,3.7,4.47,3.7c1.88,0,3.84-1.17,4.27-3.7H0.34"/>
				</g>
				<g id="g12183" transform="translate(76.5066,702.6114)">
					<path id="path12185" class="st1" d="M14.86-76.31h2.33l2.99,10.25h0.05l2.96-10.25h2.33l5.78,15.8h-4.04l-2.91-9.65H24.3
						l-2.57,9.65h-3.01l-2.59-9.65h-0.06l-2.87,9.65H9.16L14.86-76.31z"/>
				</g>
				<g id="g12187" transform="translate(90.3468,702.6114)">
					<path id="path12189" class="st2" d="M24.79-76.31h3.47v1.91c0.94-1.05,2.28-2.42,5.33-2.42c5.78,0,7.86,5.32,7.86,8.49
						c0,4.18-3.13,8.37-7.94,8.37c-1.77,0-3.62-0.66-4.93-1.97v6.69l-3.78,0V-76.31z M28.35-68.2c0,2.31,1.79,4.75,4.7,4.75
						c2.39,0,4.61-1.85,4.61-4.93c0-3.07-2.08-4.98-4.56-4.98C30.89-73.35,28.35-71.7,28.35-68.2"/>
				</g>
				<g id="g12191" transform="translate(110.3256,711.808)">
					<path id="path12193" class="st2" d="M39.14-69.71h-3.48v-2h-0.06c-0.12,0.23-2.02,2.54-5.24,2.54c-4.38,0-7.92-3.5-7.92-8.35
						c0-5.26,3.62-8.51,7.69-8.51c1.99,0,4.33,1.06,5.52,2.47v-1.96h3.48L39.14-69.71z M35.56-77.57c0-2.93-2-4.98-4.62-4.98
						c-2.7,0-4.7,2.19-4.7,4.87c0,2.36,1.59,5.04,4.7,5.04C33.19-72.64,35.56-74.29,35.56-77.57"/>
				</g>
				<path id="path12195" class="st1" d="M155.26,647.37h-3.78V626.3h3.78V647.37z"/>
				<g id="g12197" transform="translate(124.0712,711.808)">
					<path id="path12199" class="st2" d="M49.01-69.71h-3.47v-2h-0.06c-0.12,0.23-2.02,2.54-5.24,2.54c-4.39,0-7.92-3.5-7.92-8.35
						c0-5.26,3.62-8.51,7.69-8.51c1.99,0,4.32,1.06,5.52,2.47v-1.96h3.47V-69.71z M45.42-77.57c0-2.93-1.99-4.98-4.61-4.98
						c-2.71,0-4.7,2.19-4.7,4.87c0,2.36,1.59,5.04,4.7,5.04C43.06-72.64,45.42-74.29,45.42-77.57"/>
				</g>
				<g id="g12201" transform="translate(125.2441,702.6114)">
					<path id="path12203" class="st1" d="M49.85-76.31h3.78v7.51c0,1.34,0,2.99,0.69,3.96c0.68,1.05,1.91,1.39,2.59,1.39
						c3.19,0,3.19-3.76,3.19-5.06v-7.8h3.79v8.54c0,1.23,0,3.87-1.46,5.61c-1.31,1.6-3.38,2.2-4.75,2.2c-2.39,0-3.7-1.31-4.33-1.91
						v1.37l-3.5,0V-76.31"/>
				</g>
				<g id="g12205" transform="translate(141.2422,705.6097)">
					<path id="path12207" class="st1" d="M61.34-74.16c-1-1.59-2.25-2.19-3.5-2.19c-2.85,0-4.76,2.25-4.76,4.95
						c0,3.25,2.28,4.95,4.58,4.95c2.33,0,3.22-1.51,3.67-2.3h4.27c-1.62,4.87-5.95,5.78-7.95,5.78c-4.36,0-8.37-3.54-8.37-8.37
						c0-5.24,4.35-8.49,8.4-8.49c3.7,0,6.63,2.14,7.92,5.66H61.34"/>
				</g>
				<g id="g12209" transform="translate(153.5302,706.2231)">
					<path id="path12211" class="st2" d="M70.17-73.72c0.11,0.51,0.23,1.17,0.23,1.91c0,3.98-3.16,8.32-8.17,8.32
						c-4.87,0-8.31-4.1-8.31-8.57c0-4.61,3.64-8.37,8.34-8.37c3.7,0,6.72,2.64,7.63,5.49H65.9c-0.71-1.31-1.96-2.02-3.64-2.02
						c-2.71,0-4.19,2.22-4.35,3.25H70.17z M57.78-70.67c0.71,2.93,3.07,3.7,4.47,3.7c1.88,0,3.84-1.17,4.27-3.7H57.78"/>
				</g>
				<g id="g12213" transform="translate(92.8631,733.0946)">
					<path id="path12215" class="st2" d="M26.6-54.42l-5.06-8.74l-28.01,1.58l2.8,4.87L26.6-54.42z M46.85-26.58l2.54-9.64
						L9.65-33.61l2.8,4.87L46.85-26.58z M20.5-14.75l23.26-0.02l1.76-6.59L17.7-19.62C17.7-19.62,20.5-14.75,20.5-14.75z
						 M18.46-68.59l-4.04-6.94l-28.94-0.03l2.8,4.86C-11.72-70.7,18.46-68.59,18.46-68.59z M69.26-49.86l-7-12.14h6.67
						c3.09,0,8.63,1.54,10.33,5.94c1.58,4.09-1.32,6.2-3.35,6.2C75.92-49.85,69.26-49.86,69.26-49.86z M75.94-38.24l5.82,0.04
						c3.87,0.02,7.91,1.79,9.39,5.39c1.36,3.33-0.47,6.17-2.9,6.16l-5.63,0.01C82.63-26.65,75.94-38.24,75.94-38.24z M49.6-36.22
						l5.88,10.19l19.89,1.28l0.69,1.24l-18.4,1.29l4.3,7.47l34.11,0c10.49,0,18.25-3.75,15.23-14.78
						c-0.91-3.34-5.17-11.75-17.68-15.28c2.65-0.32,9.27-3.25,8.13-10.84c-2.02-13.47-19.46-19.88-29.16-19.88l-40.28-0.02
						l-1.98,7.79l21.09,1.49l0.72,1.23l-22.88,1.39l-2.47,9.24l32.56,1.9l0.71,1.22L1.59-47.59l2.8,4.86l62.96,4.09l0.71,1.23
						L49.6-36.22"/>
				</g>
			</g>
		</g>
	</g>
</g>
</svg>
