<?xml version="1.0" encoding="utf-8"?>
<!-- Generator: Adobe Illustrator 27.0.0, SVG Export Plug-In . SVG Version: 6.00 Build 0)  -->
<svg version="1.1" id="Layer_1" xmlns="http://www.w3.org/2000/svg" xmlns:xlink="http://www.w3.org/1999/xlink" x="0px" y="0px"
	 viewBox="0 0 512 512" style="enable-background:new 0 0 512 512;" xml:space="preserve">
<style type="text/css">
	.st0{fill:#FFFFFF;}
</style>
<g id="XMLID_1_">
	<path id="XMLID_3_" d="M485.89,285.31c-7.29-0.14-27.35-1.82-38.29-1.96c-8.56-0.14-15.43,0.7-18.09,0.98
		c0.84,1.26,1.82,2.38,2.81,3.51c3.51,0,13.46,0.42,32.12,3.65c15.43,2.66,23.98,3.09,28.19,2.95c4.21-2.95,7.85-6.59,10.94-10.8
		C499.35,284.33,491.5,285.31,485.89,285.31z"/>
	<path id="XMLID_4_" d="M464.01,292.61c-16.55-2.95-26.23-3.65-30.72-3.79c8.28,8.7,20.06,14.03,32.96,14.03
		c8.98,0,17.25-2.52,24.26-7.01C486.03,295.69,477.61,294.99,464.01,292.61z"/>
	<path id="XMLID_5_" d="M447.6,282.37c10.94,0,30.86,1.54,38.29,1.54c6.17,0,15.15-1.4,18.79-2.1c4.63-7.15,7.29-15.57,7.29-24.69
		c0-4.07-0.56-8.13-1.54-11.78l-24.54,6.31l2.66-5.05c5.75-0.84,13.18-2.81,20.06-6.45c-0.56-1.26-1.12-2.66-1.82-3.93
		c-5.89,2.95-11.22,4.35-15.43,4.91l3.79-7.29l9.82-0.7c-0.84-1.4-1.82-2.81-2.81-4.07H490.8l4.49-7.15
		c-0.98-0.84-1.96-1.54-2.95-2.24l-9.12,12.76l-2.66-5.33l0.42-1.82l8.7-7.43c-0.98-0.56-1.96-1.12-2.95-1.68l-9.26,4.91l-4.77-9.4
		c-1.4-0.14-2.81-0.28-4.07-0.42l5.05,12.9l-1.4,1.26l-7.43-14.31c-0.42,0-0.84,0-1.26,0l-5.75,12.06l-5.89-9.82
		c-1.96,0.7-3.79,1.4-5.61,2.24l-0.28,7.99l-8.42-2.38c-1.68,1.4-3.37,2.95-4.91,4.63l10.24,12.48l-2.81,0.14l-9.12-10.66
		c-1.12,1.4-2.1,2.81-3.09,4.21l5.75,6.87l-9.68,0.7c-2.1,5.33-3.37,11.08-3.37,17.25c0,9.96,3.23,19.07,8.56,26.65
		C431.19,283.35,438.48,282.37,447.6,282.37z"/>
	<path id="XMLID_6_" class="st0" d="M487.71,234.26l2.52-0.14l-4.35,7.15c-0.98,0-1.82-0.14-2.52-0.14L487.71,234.26z"/>
	<path id="XMLID_7_" class="st0" d="M482.24,247.16l-3.65,6.17l-3.51,0.84l4.35-6.87C480.14,247.3,481.12,247.3,482.24,247.16z"/>
	<polygon id="XMLID_8_" class="st0" points="477.89,234.82 479.3,238.19 471.72,248.57 471.44,239.31 	"/>
	<path id="XMLID_9_" class="st0" d="M471.02,259.65l15.01-3.79l2.1,3.09l3.93-0.14l-0.98-4.21l5.89-1.4
		c0.98,1.4,3.65,4.91,6.45,6.45l3.09-1.4c0,0-2.95-3.51-3.79-6.45l5.05-1.26c0.28,2.1,0.56,4.35,0.56,6.73
		c0,8.42-2.52,16.27-6.87,22.86c-9.68-0.28-19.5-1.4-29.31-2.81C469.9,268.48,470.88,259.65,471.02,259.65z"/>
	<polygon id="XMLID_10_" class="st0" points="466.53,241.97 466.53,246.46 464.43,246.32 463.73,243.24 	"/>
	<polygon id="XMLID_11_" class="st0" points="440.87,242.96 447.46,242.68 449.7,244.64 443.25,249.83 437.08,247.58 	"/>
	<polygon id="XMLID_12_" class="st0" points="433.57,243.1 431.75,245.48 426.14,243.38 	"/>
	<path id="XMLID_13_" class="st0" d="M426.84,247.87l2.38,1.12l-3.23,4.35C426.14,251.51,426.42,249.69,426.84,247.87z"/>
	<path id="XMLID_14_" class="st0" d="M425.86,256.84l2.24,0.14h1.54l4.49-5.61l5.19,2.52l-2.52,3.51l5.89,0.28l11.22-9.26l2.81,3.09
		l-11.22,6.31l9.4,0.42l5.89-2.24l2.1,2.38l-0.56,17.67c-11.22-1.68-22.44-3.23-33.52-3.51c-1.82-4.63-2.95-9.82-2.95-15.15
		C425.86,257.12,425.86,256.98,425.86,256.84z"/>
	<path id="XMLID_15_" d="M204.82,280.4c0,4.35-2.1,4.21-4.21,4.21c-1.54,0-6.31,0.28-9.68-7.85c-0.14-0.98,0-3.51,2.95-4.21
		c0,0,14.31-5.61,15.99-6.45c1.68-0.84,1.82-3.79,1.82-6.03s-3.51-19.78-17.11-19.78s-18.79,14.59-18.79,30.44
		s7.43,27.91,21.04,27.91s15.57-8.56,15.57-13.89C212.67,278.44,204.82,276.9,204.82,280.4z"/>
	<path id="XMLID_16_" d="M64.7,292.75c-2.1-1.26-2.52-2.66-2.52-4.21c0,0,0-39.13,0-42.92c0-3.79-1.68-5.05-2.66-5.05
		c-2.52,0-14.17,5.05-16.83,6.45c-2.66,1.4-0.56,3.37,0.56,3.93c1.26,0.56,2.24,1.26,2.24,4.63c0,3.37,0,31.42,0,32.96
		c0,1.4-0.42,2.95-2.52,4.21c-0.42,0.28-0.7,0.56-0.84,0.98c-0.14-0.42-0.56-0.98-1.26-1.4c-3.09-2.24-2.66-3.37-2.66-6.03
		s0-55.96,0-59.19c0-3.23-0.14-5.61,1.4-5.61c4.21,0,6.45,7.85,8.7,13.32c2.24,5.47,9.82,2.52,8.98-1.26
		c-0.84-3.79-2.52-14.31-3.37-18.09c-0.84-3.79-2.24-6.31-3.79-6.31c-1.4,0-3.93,2.24-3.93,2.24l-17.39,0.42l-17.67-0.28
		c0,0-2.52-2.24-3.93-2.24s-2.95,2.52-3.79,6.31s-2.52,14.31-3.37,18.09s6.73,6.73,8.98,1.26c2.24-5.47,4.63-13.32,8.7-13.32
		c1.68,0,1.4,2.52,1.4,5.61s0,56.38,0,59.19c0,2.66,0.42,3.79-2.66,6.03c-3.09,2.24-0.42,4.77,4.63,4.77h15.29
		c3.09,0,5.33-0.98,5.75-2.24c0.28,1.12,1.54,2.24,2.95,2.24H62.6C64.84,297.1,66.8,294.01,64.7,292.75z"/>
	<path id="XMLID_17_" d="M269.33,292.75c-2.1-1.26-2.52-2.66-2.52-4.21c0,0,0-67.18,0-70.97c0-3.79-1.68-5.05-2.66-5.05
		c-2.52,0-14.17,5.05-16.83,6.45s-0.56,3.37,0.56,3.93c1.26,0.56,2.24,1.26,2.24,4.63c0,1.12,0,7.57,0,15.85
		c-1.12-1.54-2.95-2.52-5.89-2.52c-9.82,0-8.28,7.15-13.75,8.7c0-1.96,0-3.37,0-3.93c0-3.79-1.68-5.05-2.66-5.05
		c-2.52,0-14.17,5.05-16.83,6.45s-0.56,3.37,0.56,3.93c1.26,0.56,2.24,1.26,2.24,4.63c0,3.37,0,31.42,0,32.96
		c0,1.4-0.42,2.95-2.52,4.21c-2.1,1.26-0.14,4.35,2.1,4.35h17.53c2.24,0,4.21-3.09,2.1-4.35c-2.1-1.26-2.52-2.66-2.52-4.21
		c0,0,0-10.66,0-21.32c1.26-4.21,4.49-12.62,9.4-12.62c2.1,0,1.4,5.61,6.31,5.61c1.12,0,2.81-2.38,3.93-5.47c0,15.99,0,33.1,0,33.94
		c0,1.4-0.42,2.95-2.52,4.21c-2.1,1.26-0.14,4.35,2.1,4.35h17.53C269.61,297.1,271.44,294.01,269.33,292.75z"/>
	<path id="XMLID_18_" d="M358.12,292.75c-2.1-1.26-2.52-2.66-2.52-4.21c0-2.95,0.84-47.27-15.57-47.27c-5.19,0-6.03,3.37-8.7,4.91
		c0-0.28,0-0.42,0-0.56c0-3.79-1.68-5.05-2.66-5.05c-2.52,0-14.17,5.05-16.83,6.45c-2.66,1.4-0.56,3.37,0.56,3.93
		c1.26,0.56,2.24,1.26,2.24,4.63s0,31.42,0,32.96c0,1.4-0.42,2.81-2.24,4.07c-0.28-1.82-1.82-3.79-3.23-3.79
		c-1.68,0-2.1-1.4-2.1-3.37c0-1.82,0-2.66-1.68-23.28c-1.68-20.62-10.38-20.06-19.64-20.06c-9.12,0-17.11,4.35-17.11,11.5
		c0,7.01,4.63,7.71,8.13,7.71s6.31-0.84,6.31-5.47c0-4.63-2.95-6.03-2.95-6.03s1.4-0.42,4.77-0.42c3.37,0,5.19,5.19,5.19,9.82
		c0,3.79-6.73,3.93-9.12,5.19c-8.7,4.35-12.9,11.22-12.9,19.78c0,8.56,5.05,12.9,6.73,12.9c1.68,0,11.22,0,14.59,0
		c3.37,0,4.77-1.82,5.89-1.82c0.98,0,1.68,1.82,2.95,1.82s3.09,0,9.12,0c2.81,0,4.07-0.42,4.77-1.12c0.56,0.7,1.4,1.12,2.24,1.12
		h17.53c2.24,0,4.21-3.09,2.1-4.35c-2.1-1.26-2.52-2.66-2.52-4.21c0,0,0-19.64,0-32.4c0-1.26,1.68-3.23,3.51-3.23
		c4.35,0,5.89,31,5.89,35.63c0,1.4-0.42,2.95-2.52,4.21c-2.1,1.26-0.14,4.35,2.1,4.35h15.71
		C358.26,297.1,360.22,294.01,358.12,292.75z"/>
	<path id="XMLID_19_" d="M158.81,239.87c-4.49,0-3.79,1.96-7.01,2.95c0-13.89,0-25.39,0-26.65c0-3.79-1.68-5.05-2.66-5.05
		c-2.52,0-13.04,5.05-15.85,6.45c-2.66,1.4-0.56,4.35,0.56,5.05c1.26,0.56,1.26,1.26,1.26,4.63c0,2.81,0,55.4,0,62.27
		c0,1.82,0.14,3.09,0.28,4.21c-0.14-0.28-0.42-0.56-0.7-0.84c-2.1-1.26-2.52-2.66-2.52-4.21c0-2.95,0.84-47.27-15.57-47.27
		c-6.03,0-6.31,4.49-9.96,5.47c-1.54-3.37-4.49-6.03-9.4-6.03c-8.13,0-7.15,4.77-11.22,5.75c0-0.42,0-0.7,0-0.84
		c0-3.79-1.68-5.05-2.66-5.05c-2.52,0-14.17,5.05-16.83,6.45c-2.66,1.4-0.56,3.37,0.56,3.93c1.26,0.56,2.24,1.26,2.24,4.63
		c0,3.37,0,31.42,0,32.96c0,1.4-0.42,2.95-2.52,4.21s-0.14,4.35,2.1,4.35h17.53c2.24,0,4.21-3.09,2.1-4.35s-2.52-2.66-2.52-4.21
		c0,0,0-18.37,0-31.14c0-3.23,2.38-5.33,4.21-5.33s3.37,1.26,3.37,5.05c0,3.37,0,30.01,0,31.42c0,1.4-0.42,2.95-2.52,4.21
		s-0.14,4.35,2.1,4.35h15.71c2.24,0,4.21-3.09,2.1-4.35s-2.52-2.66-2.52-4.21c0,0,0-33.38,0-33.52c0-1.12,1.54-2.1,2.95-2.1
		c4.35,0,5.89,31,5.89,35.63c0,1.4-0.42,2.95-2.52,4.21s-0.14,4.35,2.1,4.35h15.71c1.54,0,2.95-1.4,2.95-2.81
		c0.7,3.09,2.24,2.81,3.09,2.81c1.26,0,2.38,0.7,5.89-4.91c0.56-0.98,2.1-0.42,3.93,1.68s2.95,4.63,10.8,4.63
		c7.85,0,16.41-1.26,16.41-29.73C175.64,246.04,163.44,239.87,158.81,239.87z"/>
	<path id="XMLID_20_" d="M400.19,292.75c-2.1-1.26-2.52-2.66-2.52-4.21c0,0,0-65.36,0-69.15s-1.68-5.05-2.66-5.05
		c-1.68,0-7.43,3.37-11.92,5.33c-1.96,0.84-4.21,0.56-4.91,1.12c-2.66,1.4-0.56,3.37,0.56,3.93c1.26,0.56,2.24,1.26,2.24,4.63
		c0,1.12,0,7.85,0,16.41c-1.12-1.12-3.93-3.09-7.99-3.09c-5.47,0-16.41,10.24-16.41,31.7c0,8.98,2.66,15.43,4.35,19.36
		c1.68,3.93,3.51,3.23,6.31,3.23c2.1,0,30.86,0,30.86,0C400.33,297.1,402.3,294.01,400.19,292.75z"/>
	<polygon id="XMLID_21_" class="st0" points="454.89,231.31 450.97,230.05 451.39,237.35 	"/>
	<polygon id="XMLID_22_" class="st0" points="457.28,237.63 455.17,242.4 458.4,245.62 	"/>
	<polygon id="XMLID_23_" class="st0" points="462.89,238.33 466.81,235.52 468.22,227.81 464.71,220.52 460.78,229.63 	"/>
	<polygon id="XMLID_24_" class="st0" points="452.65,225.7 450.54,221.92 450.68,225.42 	"/>
	<polygon id="XMLID_25_" class="st0" points="445.5,228.23 438.62,226.13 445.92,233.28 	"/>
	<path id="XMLID_26_" class="st0" d="M156.71,248.57c3.79,0,5.47,12.48,5.47,18.79c0,6.31-1.68,17.11-5.89,17.11
		s-4.77-12.76-4.77-17.11S152.92,248.57,156.71,248.57z"/>
	<path id="XMLID_27_" class="st0" d="M191.63,248.01c1.82,0,6.03,5.89,6.03,11.5c0,5.61-4.77,7.29-7.01,7.29
		c-0.98,0-2.1-0.14-2.24-0.98C186.3,249.69,189.81,248.01,191.63,248.01z"/>
	<path id="XMLID_28_" class="st0" d="M291.07,269.04c0,0,0,14.73,0,16.69c0,1.82-0.42,4.21-2.95,4.21c-2.52,0-5.05-0.84-5.05-9.12
		C283.08,272.27,286.59,269.04,291.07,269.04z"/>
	<path id="XMLID_29_" class="st0" d="M375.51,252.35c2.24,0,6.31,6.73,6.31,18.51c0,11.92-2.95,17.11-4.77,17.11
		c-1.82,0-6.03-4.77-6.03-16.83C371.02,258.95,374.11,252.35,375.51,252.35z"/>
	<path id="XMLID_30_" d="M358.96,222.9c0-2.38,1.96-4.21,4.35-4.21s4.35,1.82,4.35,4.21c0,2.52-1.96,4.21-4.35,4.21
		S358.96,225.28,358.96,222.9z"/>
	<path id="XMLID_31_" class="st0" d="M363.31,226.41c1.96,0,3.51-1.54,3.51-3.51s-1.54-3.51-3.51-3.51s-3.51,1.54-3.51,3.51
		C359.8,224.86,361.34,226.41,363.31,226.41z"/>
	<path id="XMLID_32_" d="M362.32,225.28h-0.7v-4.91h1.82c1.12,0,1.68,0.42,1.68,1.4c0,0.84-0.56,1.26-1.26,1.4l1.4,2.1h-0.84
		l-1.26-2.1h-0.84V225.28z"/>
	<path id="XMLID_33_" class="st0" d="M363.31,222.62c0.56,0,1.12,0,1.12-0.84c0-0.56-0.56-0.7-1.12-0.7h-0.98v1.54H363.31z"/>
</g>
</svg>
