<?xml version="1.0" encoding="utf-8"?>
<!-- Generator: Adobe Illustrator 26.5.0, SVG Export Plug-In . SVG Version: 6.00 Build 0)  -->
<svg version="1.1" id="Layer_1" xmlns="http://www.w3.org/2000/svg" xmlns:xlink="http://www.w3.org/1999/xlink" x="0px" y="0px"
	 viewBox="0 0 512 512" style="enable-background:new 0 0 512 512;" xml:space="preserve">
<path id="XMLID_1_" d="M56.49,347.2c-15.22-0.54-27.75-4.72-37.45-12.53c-1.89-1.48-6.33-5.93-7.81-7.81
	c-3.91-4.98-6.6-9.83-8.49-15.22c-5.52-16.57-2.69-38.26,8.08-62.11c9.3-20.34,23.58-40.55,48.5-68.57
	c3.64-4.18,14.55-16.17,14.68-16.17c0,0-0.54,1.08-1.35,2.29c-6.47,10.91-11.99,23.58-15.09,34.76
	c-4.85,17.78-4.31,33.01,1.75,44.86c4.18,8.08,11.18,15.22,19.13,19.13c13.88,6.87,34.35,7.41,59.14,1.62
	c1.75-0.4,86.63-22.9,188.61-50.12c102.25-27.21,185.78-49.44,185.78-49.44S274.87,269.33,151.73,322
	c-19.53,8.35-24.65,10.37-33.81,13.61C94.48,343.83,73.46,347.87,56.49,347.2z"/>
</svg>
