<?xml version="1.0" encoding="utf-8"?>
<!-- Generator: Adobe Illustrator 26.5.0, SVG Export Plug-In . SVG Version: 6.00 Build 0)  -->
<svg version="1.1" id="Layer_1" xmlns="http://www.w3.org/2000/svg" xmlns:xlink="http://www.w3.org/1999/xlink" x="0px" y="0px"
	 viewBox="0 0 512 512" style="enable-background:new 0 0 512 512;" xml:space="preserve">
<style type="text/css">
	.st0{fill:#E63129;}
</style>
<g id="XMLID_19_">
	<path id="XMLID_21_" class="st0" d="M275.91,129.6c-1.71,0.28-3.27,6.4-6.54,9.67c-2.42,2.28-5.26,2.13-6.83,4.98
		c-0.57,1.14-0.43,2.84-1.14,4.69c-1.28,3.56-5.97,3.84-5.97,7.68c0,4.12,3.84,4.98,7.25,7.82c2.7,2.42,2.84,3.98,6.12,5.12
		c2.7,0.85,6.83-2.13,10.38-1c2.99,0.85,5.83,1.56,6.54,4.55c0.57,2.84,0,7.25-3.7,6.68c-1.28-0.14-6.54-1.99-13.08-1.28
		c-7.82,0.85-16.78,3.41-17.78,12.23c-0.43,4.84,5.55,10.67,11.38,9.53c3.98-0.85,2.13-5.55,4.27-7.82
		c2.84-2.99,19.34,10.38,34.56,10.38c6.4,0,11.24-1.56,15.93-6.54c0.43-0.43,1-1.14,1.71-1.28c0.71,0,1.71,0.71,2.13,1
		c12.23,9.81,21.48,29.58,66.56,29.87c6.4,0,13.51,3.13,19.49,8.39c5.26,4.84,8.39,12.37,11.38,20.05
		c4.55,11.52,12.66,22.76,24.89,35.13c0.71,0.71,10.81,8.53,11.52,9.1c0.14,0.14,0.85,1.85,0.57,2.84
		c-0.28,7.54-1.42,29.16,14.79,30.15c3.98,0.14,2.99-2.56,2.99-4.55c0-3.84-0.71-7.54,1.28-11.38c2.7-5.26-5.83-7.82-5.55-19.34
		c0.14-8.53-7.11-7.11-10.67-13.65c-2.13-3.84-3.98-5.83-3.84-10.38c0.85-26.17-5.55-43.24-8.68-47.5
		c-2.42-3.13-4.55-4.41-2.28-5.97c13.51-8.96,16.64-17.21,16.64-17.21c7.25-16.93,13.65-32.29,22.61-39.11
		c1.85-1.42,6.4-4.84,9.24-6.26c8.39-3.98,12.66-6.26,15.08-8.68c3.84-3.7,6.83-11.52,3.13-16.21c-4.55-5.83-12.37-1.14-15.93,0.85
		c-24.89,14.79-28.59,40.82-37.12,55.75c-6.83,11.95-18.06,20.77-28.02,21.48c-7.54,0.57-15.5-1-23.61-4.55
		c-19.49-8.53-30.29-19.63-32.71-21.62c-5.26-3.98-45.94-44.09-79.08-45.66c0,0-4.12-8.25-5.12-8.39c-2.42-0.28-4.84,4.84-6.68,5.55
		C280.47,135.57,277.62,129.31,275.91,129.6"/>
	<path id="XMLID_25_" class="st0" d="M130.56,368.4c-3.13-0.14-5.69-2.56-5.69-5.83V259.59H90.88v113.5c0,5.55,4.55,10.1,10.1,10.1
		h59.31c5.55,0,10.1-4.55,10.1-10.1v-113.5h-33.99v102.97C136.39,365.84,133.69,368.4,130.56,368.4"/>
	<path id="XMLID_26_" class="st0" d="M244.2,259.59h-51.34c-6.12,0-11.09,4.98-11.09,11.09v112.5h33.99V279.93
		c0-3.13,2.56-5.69,5.69-5.69c3.13,0,5.69,2.42,5.83,5.55v103.4h33.85v-103.4c0-3.13,2.56-5.55,5.69-5.55
		c3.13,0,5.69,2.56,5.69,5.69v103.26h33.99v-112.5c0-6.12-4.98-11.09-11.09-11.09L244.2,259.59"/>
	<path id="XMLID_29_" class="st0" d="M68.26,352.18H33.99v31.01H-0.01v-123.6H68.4c6.12,0,10.95,4.98,10.95,11.09v70.26
		C79.36,347.21,74.38,352.18,68.26,352.18z M45.51,280.22c0-3.41-2.84-5.83-5.69-5.83h-5.83v62.58h5.83c2.99,0,5.83-2.42,5.69-5.83
		V280.22"/>
	<path id="XMLID_32_" class="st0" d="M363.67,383.33v-31.01h-11.52v31.01H318.3v-112.5c0-6.12,4.98-11.09,11.09-11.09h57.32
		c6.12,0,11.09,4.98,11.09,11.09v112.5H363.67z M363.67,336.97v-56.89c-0.14-3.13-2.56-5.55-5.83-5.55c-3.13,0-5.69,2.56-5.69,5.69
		v56.89h11.52"/>
</g>
</svg>
