<?xml version="1.0" encoding="utf-8"?>
<!-- Generator: Adobe Illustrator 26.5.0, SVG Export Plug-In . SVG Version: 6.00 Build 0)  -->
<svg version="1.1" id="Layer_1" xmlns="http://www.w3.org/2000/svg" xmlns:xlink="http://www.w3.org/1999/xlink" x="0px" y="0px"
	 viewBox="0 0 512 512" style="enable-background:new 0 0 512 512;" xml:space="preserve">
<g id="XMLID_21_">
	<path id="XMLID_28_" d="M310.18,295.95c-31.28,0-56.72-14.64-61.27-31.85c-0.57-2.42-1-4.83-1-7.39c0-5.83,1.71-11.09,4.69-15.92
		c8.25-13.08,31.13-24.88,59.43-24.88h6.97c15.92,0,33.98,5.69,43.22,11.8c11.09,7.25,17.91,17.2,17.91,29
		c0,4.98-1.28,9.67-3.55,13.93c-7.39,13.65-31.56,25.31-58.29,25.31H310.18z M276.77,256c0,15.92,16.63,28.72,37.11,28.72
		s37.11-12.8,37.11-28.72c0-15.78-16.63-28.72-37.11-28.72C293.4,227.28,276.77,240.22,276.77,256"/>
	<path id="XMLID_29_" d="M143.99,287.13v-48.91v-13.22c0-3.41,1.42-6.68,6.68-6.68h91.98c0,0,3.41,0,3.41,3.41v4.83
		c0,0,0,3.55-3.41,3.55h-65.54c0,0-2.99,0.14-2.99,3.41v13.08c0,0-0.57,3.7,4.12,3.7h52.18c0,0,3.27,0,3.27,3.41v4.98
		c0,3.41-3.27,3.41-3.27,3.41h-52.46c-4.55,0-4.12,3.7-4.12,3.7v13.08c0,3.27,2.99,3.27,2.99,3.27h65.54c3.41,0,3.41,3.55,3.41,3.55
		v4.83c0,3.41-3.41,3.41-3.41,3.41h-91.98C145.41,293.82,143.99,290.55,143.99,287.13"/>
	<path id="XMLID_30_" d="M479.64,218.33c-5.26,0-7.25,2.13-7.25,2.13l-25.02,23.17c0,0-1.14,1-2.42,1c-1.28,0-2.42-1-2.42-1
		l-25.02-23.17c0,0-2.13-2.13-7.25-2.13h-30c-2.7,0-3.13,3.13,0,4.98l44.07,29.43c2.99,2.84,1.14,6.26,0.43,6.68L379.7,290.4
		c0,0-4.69,3.41,2.42,3.41h33.12c0,0,3.55,0.28,6.68-2.7l21.18-21.04c0,0,0.71-0.57,1.85-0.57s1.85,0.57,1.85,0.57l21.18,21.04
		c3.13,3.13,6.68,2.7,6.68,2.7h33.12c7.11,0,2.42-3.41,2.42-3.41l-44.92-30.99c-0.71-0.43-2.56-3.84,0.43-6.68l44.07-29.43
		c3.13-1.85,2.7-4.98,0-4.98L479.64,218.33L479.64,218.33z"/>
	<path id="XMLID_31_" d="M94.51,236.1c0.57,0.43,1.28,0.43,1.56,0.43h27.01c1.14,0,2.84-1.85,1.14-3.55
		c-1.85-1.85-4.83-3.7-6.82-5.12c-9.24-6.11-28.72-11.8-44.78-11.8h-8.53c-28.29,0-51.18,11.66-59.43,24.88
		c-2.99,4.83-4.69,10.24-4.69,15.92c0,2.56,0.28,4.98,1,7.39c4.55,17.2,30,31.85,61.27,31.85h7.96c26.73,0,50.9-11.8,58.29-25.31
		c2.27-4.27,3.55-8.81,3.55-13.93v-3.13c0-3.55-3.27-3.55-3.27-3.55H63.8c0,0-3.27,0-3.27,3.55v5.12c0,3.55,3.27,3.55,3.27,3.55
		h35.83c2.56,0,1.85,1.99,1.85,1.99c-4.55,11.8-18.77,20.47-35.54,20.47c-20.47,0-37.11-12.8-37.11-28.72
		c0-15.78,16.63-28.72,37.11-28.72c0.43,0,2.27,0,2.7,0c9.38,0.28,17.77,3.13,24.31,7.68L94.51,236.1z"/>
</g>
</svg>
